<svg width="28" height="28" viewBox="0 0 28 28" fill="none" xmlns="http://www.w3.org/2000/svg">
<g opacity="0.8">
<path d="M15.9743 13.9999L11.1243 19.2331C11.0844 19.2753 11.0528 19.3254 11.0314 19.3804C11.0101 19.4355 10.9993 19.4945 10.9998 19.5539C11.0002 19.6134 11.0119 19.6722 11.0342 19.7269C11.0564 19.7815 11.0888 19.8311 11.1294 19.8725C11.17 19.914 11.218 19.9466 11.2707 19.9685C11.3233 19.9903 11.3796 20.001 11.4363 19.9999C11.4929 19.9987 11.5487 19.9858 11.6006 19.9619C11.6524 19.9379 11.6992 19.9034 11.7383 19.8604L16.8784 14.3136C16.9562 14.2296 16.9998 14.1171 16.9998 13.9999C16.9998 13.8828 16.9562 13.7703 16.8784 13.6863L11.7383 8.13952C11.6992 8.09645 11.6524 8.06195 11.6006 8.03801C11.5487 8.01406 11.4929 8.00115 11.4363 8.00002C11.3796 7.99889 11.3233 8.00956 11.2707 8.03141C11.218 8.05327 11.17 8.08587 11.1294 8.12735C11.0888 8.16882 11.0564 8.21833 11.0342 8.27302C11.0119 8.3277 11.0002 8.38648 10.9998 8.44594C10.9993 8.50541 11.0101 8.56438 11.0314 8.61945C11.0528 8.67451 11.0844 8.72458 11.1243 8.76676L15.9743 13.9999Z" fill="black" stroke="black" stroke-width="0.2"/>
</g>
</svg>
