<svg width="39" height="36" viewBox="0 0 39 36" fill="none" xmlns="http://www.w3.org/2000/svg">
<circle cx="19" cy="17.7522" r="17" fill="#05AA5B"/>
<rect x="12.75" y="10.5" width="12.5" height="15" fill="white"/>
<path d="M18.9624 5.5C12.0624 5.5 6.4624 11.1 6.4624 18C6.4624 24.9 12.0624 30.5 18.9624 30.5C25.8624 30.5 31.4624 24.9 31.4624 18C31.4624 11.1 25.8749 5.5 18.9624 5.5ZM23.6499 18.4375L18.9999 23.725L18.4499 24.35C17.6874 25.2125 17.0624 24.9875 17.0624 23.825V18.875H14.9374C13.9749 18.875 13.7124 18.2875 14.3499 17.5625L18.9999 12.275L19.5499 11.65C20.3124 10.7875 20.9374 11.0125 20.9374 12.175V17.125H23.0624C24.0249 17.125 24.2874 17.7125 23.6499 18.4375Z" fill="#05AA5B"/>
</svg>
