<svg width="12" height="12" viewBox="0 0 12 12" fill="none" xmlns="http://www.w3.org/2000/svg">
<g opacity="0.8">
<path d="M7.17966 5.9999L3.29966 9.83757C3.26771 9.8685 3.24246 9.90521 3.22535 9.9456C3.20825 9.98598 3.19964 10.0292 3.20001 10.0728C3.20039 10.1164 3.20975 10.1595 3.22754 10.1996C3.24534 10.2397 3.27123 10.2761 3.3037 10.3065C3.33618 10.3369 3.37459 10.3608 3.41673 10.3768C3.45887 10.3928 3.5039 10.4007 3.5492 10.3998C3.5945 10.399 3.63918 10.3895 3.68066 10.372C3.72213 10.3544 3.75958 10.3291 3.79082 10.2975L7.90294 6.22989C7.96518 6.16832 8 6.08581 8 5.9999C8 5.914 7.96518 5.83149 7.90294 5.76992L3.79082 1.70226C3.75958 1.67068 3.72213 1.64538 3.68066 1.62782C3.63918 1.61026 3.5945 1.60079 3.5492 1.59996C3.5039 1.59913 3.45887 1.60696 3.41673 1.62298C3.37459 1.63901 3.33618 1.66292 3.3037 1.69333C3.27123 1.72375 3.24534 1.76005 3.22754 1.80016C3.20975 1.84026 3.20039 1.88336 3.20001 1.92697C3.19964 1.97058 3.20825 2.01383 3.22535 2.05421C3.24246 2.09459 3.26771 2.13131 3.29966 2.16224L7.17966 5.9999Z" fill="#05AA5B" stroke="#05AA5B" stroke-width="0.4"/>
</g>
</svg>
