<svg width="18" height="18" viewBox="0 0 18 18" fill="none" xmlns="http://www.w3.org/2000/svg">
<path d="M9.021 12.9225C9.187 12.9225 9.327 12.8655 9.441 12.7515C9.5545 12.6365 9.61125 12.4965 9.61125 12.3315C9.61125 12.1655 9.554 12.0255 9.4395 11.9115C9.325 11.7975 9.185 11.7405 9.0195 11.7405C8.8535 11.7405 8.7135 11.7978 8.5995 11.9123C8.4855 12.0268 8.4285 12.1668 8.4285 12.3323C8.4285 12.4983 8.486 12.6383 8.601 12.7523C8.715 12.8663 8.855 12.9233 9.021 12.9233V12.9225ZM8.634 10.44H9.35775C9.37675 10.1135 9.438 9.8485 9.5415 9.645C9.645 9.441 9.85775 9.181 10.1797 8.865C10.5147 8.53 10.7638 8.23 10.9268 7.965C11.0903 7.7 11.172 7.3935 11.172 7.0455C11.172 6.4545 10.9645 5.9835 10.5495 5.6325C10.134 5.2815 9.6425 5.106 9.075 5.106C8.5355 5.106 8.0775 5.2525 7.701 5.5455C7.3245 5.839 7.04875 6.176 6.87375 6.5565L7.56375 6.84225C7.68375 6.56925 7.8555 6.328 8.079 6.1185C8.3025 5.9085 8.625 5.8035 9.0465 5.8035C9.533 5.8035 9.888 5.937 10.1115 6.204C10.336 6.471 10.4482 6.7645 10.4482 7.0845C10.4482 7.3445 10.378 7.5765 10.2375 7.7805C10.0975 7.985 9.915 8.1905 9.69 8.397C9.255 8.798 8.97 9.138 8.835 9.417C8.701 9.6955 8.634 10.0362 8.634 10.4392V10.44ZM9.00225 15.75C8.06925 15.75 7.19175 15.573 6.36975 15.219C5.54825 14.8645 4.8335 14.3835 4.2255 13.776C3.6175 13.169 3.13625 12.455 2.78175 11.634C2.42725 10.813 2.25 9.93575 2.25 9.00225C2.25 8.06925 2.427 7.19175 2.781 6.36975C3.1355 5.54825 3.6165 4.8335 4.224 4.2255C4.831 3.6175 5.545 3.13625 6.366 2.78175C7.187 2.42725 8.06425 2.25 8.99775 2.25C9.93075 2.25 10.8083 2.427 11.6302 2.781C12.4517 3.1355 13.1665 3.6165 13.7745 4.224C14.3825 4.831 14.8638 5.545 15.2183 6.366C15.5728 7.187 15.75 8.06425 15.75 8.99775C15.75 9.93075 15.573 10.8083 15.219 11.6302C14.8645 12.4517 14.3835 13.1665 13.776 13.7745C13.169 14.3825 12.455 14.8638 11.634 15.2183C10.813 15.5728 9.93575 15.75 9.00225 15.75ZM9 15C10.675 15 12.0937 14.4187 13.2562 13.2562C14.4187 12.0937 15 10.675 15 9C15 7.325 14.4187 5.90625 13.2562 4.74375C12.0937 3.58125 10.675 3 9 3C7.325 3 5.90625 3.58125 4.74375 4.74375C3.58125 5.90625 3 7.325 3 9C3 10.675 3.58125 12.0937 4.74375 13.2562C5.90625 14.4187 7.325 15 9 15Z" fill="#929294" stroke="#929294" stroke-width="0.2"/>
</svg>
