<svg width="16" height="16" viewBox="0 0 16 16" fill="none" xmlns="http://www.w3.org/2000/svg">
<g opacity="0.8">
<path d="M9.22897 7.75439L4.37896 12.5515C4.33903 12.5901 4.30746 12.636 4.28608 12.6865C4.26471 12.737 4.25394 12.791 4.25441 12.8456C4.25488 12.9001 4.26658 12.9539 4.28883 13.0041C4.31107 13.0542 4.34343 13.0996 4.38402 13.1376C4.42462 13.1756 4.47264 13.2055 4.52531 13.2255C4.57799 13.2456 4.63427 13.2554 4.69089 13.2543C4.74752 13.2533 4.80337 13.2414 4.85522 13.2195C4.90706 13.1975 4.95386 13.1659 4.99292 13.1264L10.1331 8.04188C10.2109 7.96491 10.2544 7.86177 10.2544 7.75439C10.2544 7.64702 10.2109 7.54387 10.1331 7.46691L4.99292 2.38234C4.95386 2.34287 4.90706 2.31124 4.85522 2.28929C4.80337 2.26734 4.74752 2.25551 4.69089 2.25447C4.63427 2.25343 4.57799 2.26321 4.52531 2.28325C4.47264 2.30328 4.42462 2.33317 4.38402 2.37118C4.34343 2.4092 4.31107 2.45458 4.28883 2.50471C4.26658 2.55484 4.25488 2.60872 4.25441 2.66323C4.25394 2.71774 4.26471 2.7718 4.28608 2.82228C4.30746 2.87276 4.33903 2.91865 4.37896 2.95731L9.22897 7.75439Z" fill="black" stroke="black" stroke-width="0.8"/>
</g>
</svg>
